#!OML:ASF X:\für Bonn\!DataBase\2005_08_11_Bastian_Final\c3d\Bastian.ASF
:FULLY-SPECIFIED
:DEGREES
106
root 7.41816 12.093 -4.31812 176.045 85.7882 -175.335
lowerback 67.7862 -6.28777 6.83547
upperback 17.9875 4.146 6.5126
thorax -1.06305 3.7288 2.8873
lowerneck -2.61951 -14.4776 -2.76682
upperneck -17.885 -17.5654 19.7077
head -2.75692 -9.68901 6.4601
rclavicle 1.08139e-013 -7.95139e-016
rhumerus 34.6444 2.2639 -45.507
rradius 24.9675
rwrist -4.54483
rhand -32.1429 -1.1166
rfingers 7.12502
rthumb -5.38666 -31.0281
lclavicle 1.08139e-013 -7.95139e-016
lhumerus -3.84261 -22.9149 82.1541
lradius 39.8574
lwrist 20.6709
lhand -12.8003 -9.61268
lfingers 7.12502
lthumb 13.2857 19.9439
rfemur -63.3457 -6.97815 19.4048
rtibia 100.815
rfoot -21.6673 1.65619
rtoes -6.42669
lfemur -49.7486 11.2269 -27.423
ltibia 108.216
lfoot -39.889 -5.69377
ltoes 6.11303
107
root 7.43736 11.9653 -4.32311 175.584 85.8718 -175.658
lowerback 68.0275 -6.28254 6.84566
upperback 18.0232 4.22039 6.52362
thorax -1.01106 3.77226 2.8797
lowerneck -2.62437 -14.5427 -2.72587
upperneck -18.0564 -17.6393 19.7085
head -2.80389 -9.73654 6.46283
rclavicle 1.27222e-014 2.06736e-014
rhumerus 34.7333 2.32865 -45.1481
rradius 24.9522
rwrist -4.68918
rhand -32.2388 -1.18003
rfingers 7.12502
rthumb -5.47928 -31.0892
lclavicle 1.27222e-014 2.06736e-014
lhumerus -3.7559 -23.0182 82.0558
lradius 40.03
lwrist 20.8611
lhand -12.7201 -9.74335
lfingers 7.12502
lthumb 13.363 19.8081
rfemur -64.0026 -7.029 19.3729
rtibia 102.045
rfoot -22.0899 1.66097
rtoes -6.48485
lfemur -50.2887 11.4656 -27.5388
ltibia 109.597
lfoot -40.2675 -5.72017
ltoes 5.96236
108
root 7.45616 11.8368 -4.32682 175.569 85.9462 -175.495
lowerback 68.274 -6.29303 6.85645
upperback 18.064 4.28141 6.53376
thorax -0.951476 3.81076 2.87712
lowerneck -2.58693 -14.5809 -2.68313
upperneck -18.2699 -17.6695 19.7049
head -2.87566 -9.76519 6.47296
rclavicle -6.99722e-014 -7.07673e-014
rhumerus 34.8497 2.43751 -44.817
rradius 24.9086
rwrist -4.80042
rhand -32.3656 -1.27776
rfingers 7.12502
rthumb -5.60169 -31.1837
lclavicle -6.99722e-014 -7.07673e-014
lhumerus -3.64947 -23.1182 81.9668
lradius 40.1941
lwrist 21.0042
lhand -12.721 -9.77056
lfingers 7.12502
lthumb 13.3621 19.781
rfemur -64.6211 -7.0872 19.393
rtibia 103.263
rfoot -22.501 1.62011
rtoes -6.45712
lfemur -50.7947 11.7314 -27.6023
ltibia 110.97
lfoot -40.6256 -5.81185
ltoes 5.84872
109
root 7.47622 11.709 -4.33131 175.606 86.0419 -175.305
lowerback 68.5096 -6.29404 6.90866
upperback 18.0503 4.36315 6.52966
thorax -0.950449 3.85673 2.83015
lowerneck -2.41786 -14.6336 -2.60888
upperneck -18.5194 -17.7143 19.6986
head -2.98197 -9.81047 6.49187
rclavicle 1.49486e-013 4.53229e-014
rhumerus 34.8221 2.55175 -44.537
rradius 24.9054
rwrist -4.95897
rhand -32.51 -1.38894
rfingers 7.12502
rthumb -5.74112 -31.2912
lclavicle 1.49486e-013 4.53229e-014
lhumerus -3.56502 -23.3543 81.8728
lradius 40.3273
lwrist 21.2267
lhand -12.7853 -9.84104
lfingers 7.12502
lthumb 13.3001 19.7146
rfemur -65.2656 -7.1334 19.4187
rtibia 104.48
rfoot -22.9136 1.58228
rtoes -6.55926
lfemur -51.3216 12.0468 -27.6723
ltibia 112.341
lfoot -40.9687 -5.88274
ltoes 5.74765
110
root 7.49655 11.5796 -4.33544 175.118 86.1277 -175.613
lowerback 68.7345 -6.27444 6.89363
upperback 18.0651 4.42965 6.54476
thorax -0.925081 3.89205 2.83795
lowerneck -2.27324 -14.6657 -2.57995
upperneck -18.7588 -17.7321 19.6976
head -3.07892 -9.83774 6.51677
rclavicle 3.49861e-014 9.54166e-015
rhumerus 34.8522 2.62613 -44.3273
rradius 24.8685
rwrist -4.96967
rhand -32.6485 -1.44097
rfingers 7.12502
rthumb -5.8749 -31.3395
lclavicle 3.49861e-014 9.54166e-015
lhumerus -3.46549 -23.4972 81.8272
lradius 40.4616
lwrist 21.3703
lhand -12.8575 -9.83124
lfingers 7.12502
lthumb 13.2305 19.7289
rfemur -65.8841 -7.18353 19.4006
rtibia 105.691
rfoot -23.2978 1.54491
rtoes -6.57484
lfemur -51.8215 12.3483 -27.7813
ltibia 113.715
lfoot -41.3347 -5.94125
ltoes 5.62473
111
root 7.51756 11.4494 -4.33866 175.041 86.2114 -175.512
lowerback 68.9523 -6.26362 6.92453
upperback 18.0407 4.50516 6.54019
thorax -0.938668 3.93288 2.79956
lowerneck -2.01949 -14.6936 -2.50125
upperneck -19.0283 -17.7368 19.6974
head -3.20947 -9.86749 6.54844
rclavicle -6.67916e-014 -4.29375e-014
rhumerus 34.7637 2.78374 -44.0947
rradius 24.8794
rwrist -5.10197
rhand -32.8272 -1.53037
rfingers 7.12502
rthumb -6.04741 -31.4241
lclavicle -6.67916e-014 -4.29375e-014
lhumerus -3.39845 -23.703 81.7511
lradius 40.5758
lwrist 21.5189
lhand -12.9156 -9.87564
lfingers 7.12502
lthumb 13.1746 19.6881
rfemur -66.5058 -7.22855 19.4206
rtibia 106.896
rfoot -23.7098 1.4904
rtoes -6.63677
lfemur -52.3196 12.6965 -27.8396
ltibia 115.084
lfoot -41.6628 -6.08838
ltoes 5.57847
112
root 7.54001 11.3196 -4.34255 174.024 86.2824 -176.33
lowerback 69.1702 -6.26237 6.91537
upperback 18.0036 4.53919 6.50496
thorax -0.96532 3.9553 2.75776
lowerneck -1.91813 -14.7358 -2.40881
upperneck -19.088 -17.792 19.6497
head -3.2535 -9.90571 6.53443
rclavicle 9.54166e-015 2.38542e-014
rhumerus 34.6909 2.87763 -44.0122
rradius 24.8269
rwrist -5.0713
rhand -33.0195 -1.6032
rfingers 7.12502
rthumb -6.23302 -31.4915
lclavicle 9.54166e-015 2.38542e-014
lhumerus -3.32841 -23.8406 81.6914
lradius 40.6349
lwrist 21.6352
lhand -12.9923 -9.89621
lfingers 7.12502
lthumb 13.1006 19.6723
rfemur -67.0984 -7.31589 19.3661
rtibia 108.102
rfoot -24.1147 1.46332
rtoes -6.75336
lfemur -52.7654 13.047 -27.9821
ltibia 116.437
lfoot -42.0468 -6.11526
ltoes 5.28406
113
root 7.56349 11.1902 -4.34575 173.895 86.3426 -176.265
lowerback 69.375 -6.26697 6.95684
upperback 17.9342 4.59397 6.48526
thorax -1.02748 3.98474 2.70289
lowerneck -1.93032 -14.8042 -2.24248
upperneck -18.962 -17.9234 19.4444
head -3.2408 -9.96525 6.44024
rclavicle -1.27222e-014 3.10104e-014
rhumerus 34.5054 3.03319 -43.9177
rradius 24.8389
rwrist -5.10781
rhand -33.2119 -1.66734
rfingers 7.12502
rthumb -6.41881 -31.5501
lclavicle -1.27222e-014 3.10104e-014
lhumerus -3.33833 -23.984 81.6489
lradius 40.7276
lwrist 21.7172
lhand -13.0191 -9.93243
lfingers 7.12502
lthumb 13.0748 19.6377
rfemur -67.6773 -7.40536 19.3805
rtibia 109.294
rfoot -24.5453 1.44195
rtoes -6.78488
lfemur -53.2329 13.4237 -28.0451
ltibia 117.787
lfoot -42.3531 -6.22533
ltoes 5.26473
114
root 7.58771 11.0631 -4.34956 173.589 86.4018 -176.366
lowerback 69.5846 -6.28362 7.00778
upperback 17.8331 4.63429 6.4391
thorax -1.12103 4.00841 2.61856
lowerneck -1.84114 -14.8612 -2.08477
upperneck -18.9037 -18.0213 19.2978
head -3.26123 -10.0177 6.37945
rclavicle -5.725e-014 3.18055e-015
rhumerus 34.2921 3.18198 -43.9007
rradius 24.8251
rwrist -5.12535
rhand -33.451 -1.69568
rfingers 7.12502
rthumb -6.64965 -31.5713
lclavicle -5.725e-014 3.18055e-015
lhumerus -3.40674 -24.1298 81.6083
lradius 40.8158
lwrist 21.7968
lhand -12.9999 -9.97096
lfingers 7.12502
lthumb 13.0933 19.598
rfemur -68.2373 -7.51128 19.3779
rtibia 110.468
rfoot -24.9309 1.41853
rtoes -6.78239
lfemur -53.6396 13.7954 -28.1184
ltibia 119.107
lfoot -42.6941 -6.3483
ltoes 5.22238
115
root 7.6121 10.9368 -4.35281 172.855 86.4361 -176.891
lowerback 69.7389 -6.2796 6.99901
upperback 17.774 4.65881 6.42812
thorax -1.1792 4.02038 2.60281
lowerneck -1.72151 -14.8966 -1.95111
upperneck -18.904 -18.084 19.1402
head -3.30675 -10.0533 6.32723
rclavicle 4.45278e-014 1.59028e-014
rhumerus 34.126 3.31877 -43.9146
rradius 24.8057
rwrist -5.07787
rhand -33.6734 -1.71327
rfingers 7.12502
rthumb -6.86427 -31.582
lclavicle 4.45278e-014 1.59028e-014
lhumerus -3.42572 -24.1756 81.6093
lradius 40.8568
lwrist 21.8382
lhand -12.9323 -9.9459
lfingers 7.12502
lthumb 13.1584 19.6189
rfemur -68.774 -7.6343 19.3409
rtibia 111.623
rfoot -25.3277 1.42031
rtoes -6.755
lfemur -54.0276 14.1722 -28.2339
ltibia 120.392
lfoot -43.0412 -6.4084
ltoes 5.09218
116
root 7.63632 10.8137 -4.35616 172.515 86.4591 -176.984
lowerback 69.8633 -6.30577 7.02661
upperback 17.7796 4.68362 6.41434
thorax -1.15981 4.04403 2.57375
lowerneck -1.73022 -14.9325 -1.78957
upperneck -18.9183 -18.1486 18.9616
head -3.34068 -10.0851 6.25532
rclavicle -2.8625e-014 -2.14687e-014
rhumerus 34.0065 3.31827 -44.0038
rradius 24.7418
rwrist -4.88118
rhand -33.9706 -1.72836
rfingers 7.12502
rthumb -7.15121 -31.5875
lclavicle -2.8625e-014 -2.14687e-014
lhumerus -3.3348 -24.2223 81.5874
lradius 40.8838
lwrist 21.842
lhand -12.8988 -9.95382
lfingers 7.12502
lthumb 13.1908 19.6089
rfemur -69.2315 -7.78027 19.3402
rtibia 112.745
rfoot -25.7434 1.36712
rtoes -6.84741
lfemur -54.3463 14.5488 -28.2912
ltibia 121.653
lfoot -43.38 -6.54088
ltoes 5.07664
117
root 7.66089 10.692 -4.35894 171.632 86.4926 -177.657
lowerback 69.8911 -6.27856 6.99091
upperback 17.8465 4.71376 6.42829
thorax -1.08679 4.06672 2.59699
lowerneck -1.77028 -14.9599 -1.63696
upperneck -18.9997 -18.1905 18.8168
head -3.38736 -10.108 6.19706
rclavicle 7.31528e-014 9.06458e-014
rhumerus 33.8747 3.3867 -43.9717
rradius 24.7869
rwrist -4.81832
rhand -34.3255 -1.75118
rfingers 7.12502
rthumb -7.49379 -31.5984
lclavicle 7.31528e-014 9.06458e-014
lhumerus -3.1654 -24.2488 81.5619
lradius 40.9151
lwrist 21.8278
lhand -12.8546 -9.90801
lfingers 7.12502
lthumb 13.2333 19.6519
rfemur -69.7503 -7.91535 19.2977
rtibia 113.853
rfoot -26.117 1.34352
rtoes -6.94422
lfemur -54.7082 14.9464 -28.3886
ltibia 122.89
lfoot -43.6867 -6.6543
ltoes 5.1126
118
root 7.68462 10.5741 -4.36215 171.296 86.5162 -177.761
lowerback 69.9345 -6.28531 6.96904
upperback 17.925 4.72354 6.43734
thorax -0.995801 4.08353 2.61966
lowerneck -1.88442 -14.9661 -1.51457
upperneck -19.0296 -18.211 18.6673
head -3.40574 -10.1126 6.13158
rclavicle -3.18055e-014 -1.05753e-013
rhumerus 33.7941 3.2571 -44.1563
rradius 24.7742
rwrist -4.43974
rhand -34.6982 -1.697
rfingers 7.12502
rthumb -7.85346 -31.5311
lclavicle -3.18055e-014 -1.05753e-013
lhumerus -2.96599 -24.2373 81.5369
lradius 40.9017
lwrist 21.7799
lhand -12.9001 -9.87389
lfingers 7.12502
lthumb 13.1895 19.6889
rfemur -70.1938 -8.05742 19.2891
rtibia 114.911
rfoot -26.5106 1.33327
rtoes -6.95566
lfemur -54.9963 15.3337 -28.4421
ltibia 124.081
lfoot -44.0089 -6.7857
ltoes 5.04212
